<?xml version="1.0" encoding="UTF-8" standalone="no"?>
<svg
   version="1.1"
   x="0px"
   y="0px"
   viewBox="-15.079 -2.27 69.841003 87.447998"
   enable-background="new -15.079 -2.27 100 100"
   xml:space="preserve"
   id="svg24"
   sodipodi:docname="drop.svg"
   width="69.841003"
   height="87.447998"
   inkscape:version="1.2.2 (b0a8486541, 2022-12-01)"
   xmlns:inkscape="http://www.inkscape.org/namespaces/inkscape"
   xmlns:sodipodi="http://sodipodi.sourceforge.net/DTD/sodipodi-0.dtd"
   xmlns="http://www.w3.org/2000/svg"
   xmlns:svg="http://www.w3.org/2000/svg"><defs
     id="defs28" /><sodipodi:namedview
     id="namedview26"
     pagecolor="#ffffff"
     bordercolor="#999999"
     borderopacity="1"
     inkscape:showpageshadow="0"
     inkscape:pageopacity="0"
     inkscape:pagecheckerboard="0"
     inkscape:deskcolor="#d1d1d1"
     showgrid="false"
     inkscape:zoom="4.7800418"
     inkscape:cx="19.978905"
     inkscape:cy="25.522789"
     inkscape:window-width="1600"
     inkscape:window-height="863"
     inkscape:window-x="1920"
     inkscape:window-y="180"
     inkscape:window-maximized="1"
     inkscape:current-layer="svg24" /><rect
     x="3.3079991"
     y="65.450005"
     width="33.068001"
     height="5.158"
     id="rect2"
     style="fill:#fce7f3;fill-opacity:1" /><polygon
     points="34.949,67.059 45.366,54.422 55.783,41.785 46.582,41.795 40.863,21.847 34.6,0 28.658,21.937 23.273,41.82 14.06,41.831 24.503,54.445 "
     id="polygon4"
     transform="translate(-15.079,-2.27)"
     style="fill:#fce7f3;fill-opacity:1" /><rect
     x="12.663"
     y="81.342003"
     width="15.779"
     height="3.836"
     id="rect6"
     style="fill:#fce7f3;fill-opacity:1" /><rect
     x="50.529003"
     y="42.982998"
     width="4.2329998"
     height="15.778"
     id="rect8"
     style="fill:#fce7f3;fill-opacity:1" /><polygon
     points="43.02,25.809 65.608,25.809 65.608,41.152 69.841,41.152 69.841,21.938 41.687,21.938 42.104,23.148 "
     id="polygon10"
     transform="translate(-15.079,-2.27)"
     style="fill:#fce7f3;fill-opacity:1" /><rect
     y="42.982998"
     width="4.2329998"
     height="15.778"
     id="rect12"
     x="-15.079"
     style="fill:#fce7f3;fill-opacity:1" /><polygon
     points="47.62,87.448 69.841,87.448 69.841,65.131 65.608,65.131 65.608,83.612 47.62,83.612 "
     id="polygon14"
     transform="translate(-15.079,-2.27)"
     style="fill:#fce7f3;fill-opacity:1" /><polygon
     points="27.385,23.257 27.817,21.938 0,21.938 0,41.152 4.233,41.152 4.233,25.809 26.548,25.809 "
     id="polygon16"
     transform="translate(-15.079,-2.27)"
     style="fill:#fce7f3;fill-opacity:1" /><polygon
     points="0,87.448 23.642,87.448 23.642,83.612 4.233,83.612 4.233,65.132 0,65.132 "
     id="polygon18"
     transform="translate(-15.079,-2.27)"
     style="fill:#fce7f3;fill-opacity:1" /></svg>
