<?xml version="1.0" encoding="UTF-8" standalone="no"?>
<svg
   version="1.1"
   viewBox="-5 -10 85.711105 54.915081"
   id="svg22"
   width="85.711105"
   height="54.915081"
   stroke="currentColor"
   fill="currentColor"
   xmlns:sodipodi="http://sodipodi.sourceforge.net/DTD/sodipodi-0.dtd"
   xmlns="http://www.w3.org/2000/svg"
   xmlns:svg="http://www.w3.org/2000/svg">
   <defs
      id="defs26" />

   <path
      d="m 80.710194,9.9899265 c 0.0039,-1.7109 -2.168,-2.1797 -4.4023,-3.6797 -0.01563,-2.6133 0.03516,-2.6016 -0.05469,-2.9414 -0.21094,-0.79297 -0.98438,-1.457 -2.1289,-1.8125 l -13.027,-4.0859 -10.512,-6.1094 c -1.5195,-0.88672 -4.0117,-0.88672 -5.5508,0 l -1.2109,0.69922 -5.6445,-1.7812 c -1.5117,-0.4843705 -3.375,-0.3281205 -4.6328,0.39063 -0.65234,0.375 0.81641,-1.0234005 -15.41,16.219 l -21.859,12.6249995 c -0.82422,0.48047 -1.2734,1.1406 -1.2734,1.8672 0,0.17969 -0.00391,3.7422 -0.00391,3.5625 0.00781,0.71875 0.45703,1.375 1.2695,1.8477 l 3.1289,1.8164 v 2.5078 c 0,0.97266 0.84375,1.8398 2.1992,2.2617 l 13.043,4.0898 10.477,6.0859 c 1.5508,0.90234 3.9883,0.90234 5.5469,0 l 1.1914,-0.6875 5.6914,1.7852 c 1.7422,0.53906 4.1172,0.27344 5.3477,-0.96875 l 14.695,-15.672 21.836,-12.605 c 0.83203,-0.48047 1.2852,-1.1484 1.2812,-1.8711 0,-0.07031 0,0.59375 0.0039,-3.5429995 z m -33.016,23.7339995 c -5.6484,5.9531 -5.3359,5.832 -5.9805,6.1992 -2.1016,1.2188 -4.6562,0.06641 -4.832,0.03906 z m 26.168,-31.3279995 c 0.76953,0.24219 1.7031,0.78516 1.5273,1.5742 -0.09375,0.44141 -0.35547,0.5625 -0.96094,1.2422 l -9.8672,-5.73440003 z m -39.875,-10.961 c 1.0391,-0.59375 2.6523,-0.72266 3.9258,-0.31641 l 4.875,1.5352 -2.9453,1.7031 -2.6719,-0.82813 c -0.16016,-0.04687 -0.33594,-0.0039 -0.45312,0.11719 l -5.1602,5.49219997 -10.773,6.22270003 c 13.816,-14.684 12.734,-13.656 13.203,-13.926 z m 4.8125,3.5234 -4.5938,2.6523 2.9648,-3.1562 z m -42.082,25.3199995 c 11.945,-6.8945 36.75,-21.21899953 48.758,-28.1519995 1.2656,-0.72656 3.4023,-0.73828 4.6641,0 4.8398,2.8125 29.078,16.898 28.859,16.77 1.0547,0.61328 1.1328,1.4882995 0.01953,2.1640995 -0.01172,0.0078 -0.01953,0.01563 -0.03125,0.02344 -1.5117,0.875 -48.176,27.84 -48.961,28.23 -1.2852,0.63281 -3.2656,0.62109 -4.4648,-0.07422 l -28.844,-16.773 c -1.1367,-0.65625 -1.0781,-1.5586 0,-2.1875 z"
      id="path2" />
   <path
      d="m 27.683194,37.048926 c 0.13672,0.07813 0.30469,0.07813 0.44141,0 l 46.199,-26.676 c 0.29297,-0.16797 0.29297,-0.5937495 0,-0.7656195 l -26.305,-15.285 c -0.13281,-0.07813 -0.30469,-0.07813 -0.44141,0 l -46.199,26.6759995 c -0.29297,0.16797 -0.29297,0.59375 0,0.76563 z m 20.117,-41.8319995 25.426,14.773 -7.1406,4.1210995 c -2.3672,-0.40625 8.5703,1.4766 -23.129,-3.9883 l 6.1133,12.016 c -2.8438,-0.49219 10.297,1.7773 -27.793,-4.8008 l 0.0039,0.0039 h -0.0078 c 0.91016,1.7891 -3.293,-6.4844 8.8906,17.508 l -2.2539,1.3008 -25.426,-14.77 z"
      id="path4" />
   <path
      d="m 37.023194,18.185926 c 2.418,0 5.5859,-1.0977 5.5898,-3.4102 0.0039,-3.1367 -5.9961,-4.457 -9.4102,-2.4844 -3.582,2.0703 -1.3516,5.8945 3.8203,5.8945 z m 4.707,-3.4102 c -0.0039,2.1523 -5.0508,3.5 -8.1133,1.7227 -1.707,-0.99219 -1.6992,-2.4414 0.03125,-3.4414 3.0352,-1.75 8.0859,-0.44141 8.082,1.7188 z"
      id="path6" />
   <path
      d="m 49.312194,5.8889265 c -0.67188,0.41406 -0.66016,1.0586 0.03125,1.4609 0.69922,0.40625 1.8438,0.40625 2.5547,-0.0039 0.67578,-0.39062 4.6406,-2.6797 5.3516,-3.0898 0.70312,-0.40625 0.70703,-1.0703 0.0078,-1.4766 -0.70312,-0.41016 -1.8477,-0.41016 -2.5547,-0.0039 -0.13672,0.07813 -0.24219,0.16406 -0.32422,0.25781 -0.89844,-0.50391 -2.543,-0.26953 -2.8008,0.54297 -2.5898,-0.64063 -4.4219,1.4766 -2.2656,2.3125 z"
      id="path8" />
   <path
      d="m 18.531194,18.466926 c -0.98047,-0.57031 -2.6055,-0.40625 -3.2227,0.28516 -1.0039,-0.56641 -2.8477,-0.30469 -3.1328,0.60938 -2.7305,-0.67969 -5.0195,1.4805 -2.5352,2.5859 -0.74609,0.45703 -0.73828,1.1875 0.03125,1.6367 0.78516,0.45703 2.0664,0.45703 2.8594,-0.0039 0.75781,-0.4375 5.1992,-3 5.9922,-3.4609 0.78516,-0.45703 0.78906,-1.1992 0.0078,-1.6523 z"
      id="path10" />
   <path
      d="m 24.058194,13.813926 0.09375,-0.05469 c 0.53516,-0.30859 1.3945,-0.30078 1.918,0.0039 0.39844,0.23437 1.0117,-0.11719 0.60938,-0.35156 -0.52344,-0.30469 -0.52734,-0.80859 0,-1.1133 l 0.10156,-0.05859 c 0.39062,-0.22656 -0.19531,-0.57031 -0.58984,-0.34375 l -0.10156,0.05859 c -0.51172,0.29688 -0.72266,0.70703 -0.625,1.1016 -1.2578,-0.10938 -1.8203,0.35156 -1.9961,0.41406 -0.40234,0.23047 0.18359,0.57812 0.58984,0.34375 z"
      id="path12" />
   <path
      d="m 40.734194,8.0679265 0.09375,-0.05469 c 0.53516,-0.30859 1.3945,-0.30078 1.918,0.0039 0.39844,0.23438 1.0117,-0.11719 0.60938,-0.35156 -0.52344,-0.30469 -0.52734,-0.80859 0,-1.1133 l 0.10156,-0.05859 c 0.39063,-0.22656 -0.19531,-0.57031 -0.58984,-0.34375 l -0.10156,0.05859 c -0.51172,0.29688 -0.72266,0.70703 -0.625,1.1016 -1.2539,-0.10937 -1.8203,0.35156 -1.9961,0.41406 -0.40234,0.23438 0.18359,0.57812 0.58984,0.34375 z"
      id="path14" />
   <path
      d="m 31.750194,7.3889265 0.09375,-0.05469 c 0.53516,-0.30859 1.3945,-0.30078 1.918,0.0039 0.40234,0.23438 1.0117,-0.11719 0.60938,-0.35156 -0.52344,-0.30469 -0.52734,-0.80859 0,-1.1133 l 0.10156,-0.05859 c 0.39453,-0.22656 -0.19531,-0.57031 -0.58984,-0.34375 l -0.10156,0.05859 c -0.51172,0.29688 -0.72266,0.70703 -0.625,1.1016 -1.2578,-0.10938 -1.8203,0.35156 -1.9961,0.41406 -0.40234,0.23047 0.1875,0.57812 0.58984,0.34375 z"
      id="path16" />
</svg>