<?xml version="1.0" encoding="UTF-8" standalone="no"?>
<svg
   version="1.1"
   x="0px"
   y="0px"
   viewBox="0 0 48 40"
   enable-background="new 0 0 52 52"
   xml:space="preserve"
   id="svg14"
   sodipodi:docname="upload.svg"
   width="48"
   height="40"
   inkscape:version="1.2.2 (b0a8486541, 2022-12-01)"
   xmlns:inkscape="http://www.inkscape.org/namespaces/inkscape"
   xmlns:sodipodi="http://sodipodi.sourceforge.net/DTD/sodipodi-0.dtd"
   xmlns="http://www.w3.org/2000/svg"
   xmlns:svg="http://www.w3.org/2000/svg"><defs
     id="defs18" /><sodipodi:namedview
     id="namedview16"
     pagecolor="#ffffff"
     bordercolor="#999999"
     borderopacity="1"
     inkscape:showpageshadow="0"
     inkscape:pageopacity="0"
     inkscape:pagecheckerboard="0"
     inkscape:deskcolor="#d1d1d1"
     showgrid="false"
     inkscape:zoom="4.5961941"
     inkscape:cx="18.602348"
     inkscape:cy="21.53956"
     inkscape:window-width="1600"
     inkscape:window-height="863"
     inkscape:window-x="1920"
     inkscape:window-y="180"
     inkscape:window-maximized="1"
     inkscape:current-layer="svg14" /><g
     id="g8"
     transform="translate(-2,-6)"
     style="fill:#fce7f3;fill-opacity:1"><polygon
       points="41.999817,13.999756 41.999817,36 50,36 50,6 14,6 14,13.999756 "
       id="polygon2"
       style="fill:#fce7f3;fill-opacity:1" /><polygon
       points="10.830383,33.322998 2,41.775635 2,46 40,46 40,25.626465 29.61261,35.570068 24.525696,30.700928 16.308411,38.567139 "
       id="polygon4"
       style="fill:#fce7f3;fill-opacity:1" /><path
       d="m 2,39.006348 8.830383,-8.452881 5.478028,5.24414 8.217285,-7.866211 5.086914,4.869141 L 40,22.857178 V 16 H 2 Z m 13.351868,-17.04834 c 1.536804,0 2.782653,1.245849 2.782653,2.782471 0,1.536865 -1.245849,2.782714 -2.782653,2.782714 -1.536744,0 -2.782593,-1.245849 -2.782593,-2.782714 0,-1.536622 1.24585,-2.782471 2.782593,-2.782471 z"
       id="path6"
       style="fill:#fce7f3;fill-opacity:1" /></g></svg>
